<svg xmlns="http://www.w3.org/2000/svg" viewBox="0 0 500 500" width="500" height="500" xmlns:c2pa="http://c2pa.org/manifest"><metadata><c2pa:manifest>AAAWgmp1bWIAAAAeanVtZGMycGEAEQAQgAAAqgA4m3EDYzJwYQAAABZcanVtYgAAAEdqdW1kYzJtYQARABCAAACqADibcQN1cm46YzJwYTo1NzYzMTk0YS1iYzZjLTRmYjEtODMzMC0yYTJjYjFjN2M4N2UAAAADl2p1bWIAAAApanVtZGMyYXMAEQAQgAAAqgA4m3EDYzJwYS5hc3NlcnRpb25zAAAAALxqdW1iAAAARGp1bWRjYm9yABEAEIAAAKoAOJtxE2MycGEuaW5ncmVkaWVudC52MwAAAAAYYzJzaG6ptUpEGJ6YfKPBfMzP+LUAAABwY2JvcqNpZGM6Zm9ybWF0bWltYWdlL3N2Zyt4bWxqaW5zdGFuY2VJRHgseG1wOmlpZDpmNTQ1MTNmOC05MDg5LTRlYmQtOGEwYS0wZmFjYjVjNzAyZjlscmVsYXRpb25zaGlwaHBhcmVudE9mAAAB4mp1bWIAAABBanVtZGNib3IAEQAQgAAAqgA4m3ETYzJwYS5hY3Rpb25zLnYyAAAAABhjMnNo98Cj6YP13FaYDLjOnJMdZwAAAZljYm9yomdhY3Rpb25zgqJmYWN0aW9ua2MycGEub3BlbmVkanBhcmFtZXRlcnOha2luZ3JlZGllbnRzgaJjdXJseC1zZWxmI2p1bWJmPWMycGEuYXNzZXJ0aW9ucy9jMnBhLmluZ3JlZGllbnQudjNkaGFzaFggV1q3LknFvwZNsZh37y64y12CijyIcLTQS6gHx5KrsBqkZmFjdGlvbngdY29tLmFudGhyb3BpYy5jbGF1ZGUucHJvdmlkZWRqcGFyYW1ldGVyc6F4H2NvbS5hbnRocm9waWMub3JpZ2luLWNvbmZpZGVuY2VndW5rbm93bmtkZXNjcmlwdGlvbnhmQ2xhdWRlIHByb3ZpZGVkIHRoaXMgZmlsZSBhdCB0aGUgcmVxdWVzdCBvZiBhIHVzZXIgYW5kIG1heSBoYXZlIGNyZWF0ZWQgb3IgbW9kaWZpZWQgdGhlIGZpbGUgY29udGVudHMubXNvZnR3YXJlQWdlbnShZG5hbWVmQ2xhdWRlcmFsbEFjdGlvbnNJbmNsdWRlZPUAAADIanVtYgAAAEBqdW1kY2JvcgARABCAAACqADibcRNjMnBhLmhhc2guZGF0YQAAAAAYYzJzaJkYTt6yG0l48CHXujoPu6gAAACAY2JvcqVjYWxnZnNoYTI1NmNwYWRNAAAAAAAAAAAAAAAAAGRoYXNoWCCbwbKewpAe9uB00gMmw7kuYaFLaLme6viugMdzARHn2GRuYW1lbmp1bWJmIG1hbmlmZXN0amV4Y2x1c2lvbnOBomVzdGFydBiWZmxlbmd0aBkeBAAAAj5qdW1iAAAAJ2p1bWRjMmNsABEAEIAAAKoAOJtxA2MycGEuY2xhaW0udjIAAAACD2Nib3KlY2FsZ2ZzaGEyNTZpc2lnbmF0dXJleE1zZWxmI2p1bWJmPS9jMnBhL3VybjpjMnBhOjU3NjMxOTRhLWJjNmMtNGZiMS04MzMwLTJhMmNiMWM3Yzg3ZS9jMnBhLnNpZ25hdHVyZWppbnN0YW5jZUlEeCx4bXA6aWlkOjkwY2U1NmVhLTE5ZTEtNGM3NS04OWM3LWRhNjdkZmEwZGNhMXJjcmVhdGVkX2Fzc2VydGlvbnODomN1cmx4LXNlbGYjanVtYmY9YzJwYS5hc3NlcnRpb25zL2MycGEuaW5ncmVkaWVudC52M2RoYXNoWCBXWrcuScW/Bk2xmHfvLrjLXYKKPIhwtNBLqAfHkquwGqJjdXJseCpzZWxmI2p1bWJmPWMycGEuYXNzZXJ0aW9ucy9jMnBhLmFjdGlvbnMudjJkaGFzaFgg/Bvhp3rpmxu0fkVv876JMQt28bIMtLI4XuuHmqC8h7KiY3VybHgpc2VsZiNqdW1iZj1jMnBhLmFzc2VydGlvbnMvYzJwYS5oYXNoLmRhdGFkaGFzaFggCKsMHO5Sn0Nu5dqSOnmZR4GTtI+LItEBcTqNbvryG650Y2xhaW1fZ2VuZXJhdG9yX2luZm+jZG5hbWVvQW50aHJvcGljIEZpbGVzZ3ZlcnNpb25lMS4wLjBrc3BlY1ZlcnNpb25lMi40LjAAABA4anVtYgAAAChqdW1kYzJjcwARABCAAACqADibcQNjMnBhLnNpZ25hdHVyZQAAABAIY2JvctKEWQISogEmGCFZAgowggIGMIIBjaADAgECAhRA5aAK7sI50L64g/oGQgU9Z1UTADAKBggqhkjOPQQDAzBJMRcwFQYDVQQKEw5BbnRocm9waWMsIFBCQzEuMCwGA1UEAxMlQW50aHJvcGljIENvbnRlbnQgQ3JlZGVudGlhbHMgUm9vdCBDQTAeFw0yNjA4MDcxODQzNTZaFw0yODA4MDYxOTQzNTZaMEQxFzAVBgNVBAoTDkFudGhyb3BpYywgUEJDMSkwJwYDVQQDEyBBbnRocm9waWMgQ2xhdWRlIENvbnRlbnQgU2lnbmluZzBZMBMGByqGSM49AgEGCCqGSM49AwEHA0IABJh6CmvLUBgFFNU0vUKlOVtE6djd17L5SuwX0LemFisBM3dkd/3cyjxFA3Qo5S46fX0/ihY0VZ7mfb9KF703t5OjWDBWMA4GA1UdDwEB/wQEAwIHgDAVBgNVHSUEDjAMBgorBgEEAYPoXgIBMAwGA1UdEwEB/wQCMAAwHwYDVR0jBBgwFoAUzlHiBIFOZFsj+OPEz5o+nMHXXMIwCgYIKoZIzj0EAwMDZwAwZAIwMXMdFJ4BetLLVY7ORuE9noqbbAZOZn/aArXyTwFAZfKrPzxF2vPoJNf1+UCdg1XGAjBwX1zd9WGqYkqmL5SFqw1QySjr1zJfpJM9+1rdDwSPLMOPOjKuiXjoU/pUUeG9RwmhY3BhZFkNngAAAAAAAAAAAAAAAAAAAAAAAAAAAAAAAAAAAAAAAAAAAAAAAAAAAAAAAAAAAAAAAAAAAAAAAAAAAAAAAAAAAAAAAAAAAAAAAAAAAAAAAAAAAAAAAAAAAAAAAAAAAAAAAAAAAAAAAAAAAAAAAAAAAAAAAAAAAAAAAAAAAAAAAAAAAAAAAAAAAAAAAAAAAAAAAAAAAAAAAAAAAAAAAAAAAAAAAAAAAAAAAAAAAAAAAAAAAAAAAAAAAAAAAAAAAAAAAAAAAAAAAAAAAAAAAAAAAAAAAAAAAAAAAAAAAAAAAAAAAAAAAAAAAAAAAAAAAAAAAAAAAAAAAAAAAAAAAAAAAAAAAAAAAAAAAAAAAAAAAAAAAAAAAAAAAAAAAAAAAAAAAAAAAAAAAAAAAAAAAAAAAAAAAAAAAAAAAAAAAAAAAAAAAAAAAAAAAAAAAAAAAAAAAAAAAAAAAAAAAAAAAAAAAAAAAAAAAAAAAAAAAAAAAAAAAAAAAAAAAAAAAAAAAAAAAAAAAAAAAAAAAAAAAAAAAAAAAAAAAAAAAAAAAAAAAAAAAAAAAAAAAAAAAAAAAAAAAAAAAAAAAAAAAAAAAAAAAAAAAAAAAAAAAAAAAAAAAAAAAAAAAAAAAAAAAAAAAAAAAAAAAAAAAAAAAAAAAAAAAAAAAAAAAAAAAAAAAAAAAAAAAAAAAAAAAAAAAAAAAAAAAAAAAAAAAAAAAAAAAAAAAAAAAAAAAAAAAAAAAAAAAAAAAAAAAAAAAAAAAAAAAAAAAAAAAAAAAAAAAAAAAAAAAAAAAAAAAAAAAAAAAAAAAAAAAAAAAAAAAAAAAAAAAAAAAAAAAAAAAAAAAAAAAAAAAAAAAAAAAAAAAAAAAAAAAAAAAAAAAAAAAAAAAAAAAAAAAAAAAAAAAAAAAAAAAAAAAAAAAAAAAAAAAAAAAAAAAAAAAAAAAAAAAAAAAAAAAAAAAAAAAAAAAAAAAAAAAAAAAAAAAAAAAAAAAAAAAAAAAAAAAAAAAAAAAAAAAAAAAAAAAAAAAAAAAAAAAAAAAAAAAAAAAAAAAAAAAAAAAAAAAAAAAAAAAAAAAAAAAAAAAAAAAAAAAAAAAAAAAAAAAAAAAAAAAAAAAAAAAAAAAAAAAAAAAAAAAAAAAAAAAAAAAAAAAAAAAAAAAAAAAAAAAAAAAAAAAAAAAAAAAAAAAAAAAAAAAAAAAAAAAAAAAAAAAAAAAAAAAAAAAAAAAAAAAAAAAAAAAAAAAAAAAAAAAAAAAAAAAAAAAAAAAAAAAAAAAAAAAAAAAAAAAAAAAAAAAAAAAAAAAAAAAAAAAAAAAAAAAAAAAAAAAAAAAAAAAAAAAAAAAAAAAAAAAAAAAAAAAAAAAAAAAAAAAAAAAAAAAAAAAAAAAAAAAAAAAAAAAAAAAAAAAAAAAAAAAAAAAAAAAAAAAAAAAAAAAAAAAAAAAAAAAAAAAAAAAAAAAAAAAAAAAAAAAAAAAAAAAAAAAAAAAAAAAAAAAAAAAAAAAAAAAAAAAAAAAAAAAAAAAAAAAAAAAAAAAAAAAAAAAAAAAAAAAAAAAAAAAAAAAAAAAAAAAAAAAAAAAAAAAAAAAAAAAAAAAAAAAAAAAAAAAAAAAAAAAAAAAAAAAAAAAAAAAAAAAAAAAAAAAAAAAAAAAAAAAAAAAAAAAAAAAAAAAAAAAAAAAAAAAAAAAAAAAAAAAAAAAAAAAAAAAAAAAAAAAAAAAAAAAAAAAAAAAAAAAAAAAAAAAAAAAAAAAAAAAAAAAAAAAAAAAAAAAAAAAAAAAAAAAAAAAAAAAAAAAAAAAAAAAAAAAAAAAAAAAAAAAAAAAAAAAAAAAAAAAAAAAAAAAAAAAAAAAAAAAAAAAAAAAAAAAAAAAAAAAAAAAAAAAAAAAAAAAAAAAAAAAAAAAAAAAAAAAAAAAAAAAAAAAAAAAAAAAAAAAAAAAAAAAAAAAAAAAAAAAAAAAAAAAAAAAAAAAAAAAAAAAAAAAAAAAAAAAAAAAAAAAAAAAAAAAAAAAAAAAAAAAAAAAAAAAAAAAAAAAAAAAAAAAAAAAAAAAAAAAAAAAAAAAAAAAAAAAAAAAAAAAAAAAAAAAAAAAAAAAAAAAAAAAAAAAAAAAAAAAAAAAAAAAAAAAAAAAAAAAAAAAAAAAAAAAAAAAAAAAAAAAAAAAAAAAAAAAAAAAAAAAAAAAAAAAAAAAAAAAAAAAAAAAAAAAAAAAAAAAAAAAAAAAAAAAAAAAAAAAAAAAAAAAAAAAAAAAAAAAAAAAAAAAAAAAAAAAAAAAAAAAAAAAAAAAAAAAAAAAAAAAAAAAAAAAAAAAAAAAAAAAAAAAAAAAAAAAAAAAAAAAAAAAAAAAAAAAAAAAAAAAAAAAAAAAAAAAAAAAAAAAAAAAAAAAAAAAAAAAAAAAAAAAAAAAAAAAAAAAAAAAAAAAAAAAAAAAAAAAAAAAAAAAAAAAAAAAAAAAAAAAAAAAAAAAAAAAAAAAAAAAAAAAAAAAAAAAAAAAAAAAAAAAAAAAAAAAAAAAAAAAAAAAAAAAAAAAAAAAAAAAAAAAAAAAAAAAAAAAAAAAAAAAAAAAAAAAAAAAAAAAAAAAAAAAAAAAAAAAAAAAAAAAAAAAAAAAAAAAAAAAAAAAAAAAAAAAAAAAAAAAAAAAAAAAAAAAAAAAAAAAAAAAAAAAAAAAAAAAAAAAAAAAAAAAAAAAAAAAAAAAAAAAAAAAAAAAAAAAAAAAAAAAAAAAAAAAAAAAAAAAAAAAAAAAAAAAAAAAAAAAAAAAAAAAAAAAAAAAAAAAAAAAAAAAAAAAAAAAAAAAAAAAAAAAAAAAAAAAAAAAAAAAAAAAAAAAAAAAAAAAAAAAAAAAAAAAAAAAAAAAAAAAAAAAAAAAAAAAAAAAAAAAAAAAAAAAAAAAAAAAAAAAAAAAAAAAAAAAAAAAAAAAAAAAAAAAAAAAAAAAAAAAAAAAAAAAAAAAAAAAAAAAAAAAAAAAAAAAAAAAAAAAAAAAAAAAAAAAAAAAAAAAAAAAAAAAAAAAAAAAAAAAAAAAAAAAAAAAAAAAAAAAAAAAAAAAAAAAAAAAAAAAAAAAAAAAAAAAAAAAAAAAAAAAAAAAAAAAAAAAAAAAAAAAAAAAAAAAAAAAAAAAAAAAAAAAAAAAAAAAAAAAAAAAAAAAAAAAAAAAAAAAAAAAAAAAAAAAAAAAAAAAAAAAAAAAAAAAAAAAAAAAAAAAAAAAAAAAAAAAAAAAAAAAAAAAAAAAAAAAAAAAAAAAAAAAAAAAAAAAAAAAAAAAAAAAAAAAAAAAAAAAAAAAAAAAAAAAAAAAAAAAAAAAAAAAAAAAAAAAAAAAAAAAAAAAAAAAAAAAAAAAAAAAAAAAAAAAAAAAAAAAAAAAAAAAAAAAAAAAAAAAAAAAAAAAAAAAAAAAAAAAAAAAAAAAAAAAAAAAAAAAAAAAAAAAAAAAAAAAAAAAAAAAAAAAAAAAAAAAAAAAAAAAAAAAAAAAAAAAAAAAAAAAAAAAAAAAAAAAAAAAAAAAAAAAAAAAAAAAAAAAAAAAAAAAAAAAAAAAAAAAAAAAAAAAAAAAAAAAAAAAAAAAAAAAAAAAAAAAAAAAAAAAAAAAAAAAAAAAAAAAAAAAAAAAAAAAAAAAAAAAAAAAAAAAAAAAAAAAAAAAAAAAAAAAAAAAAAAAAAAAAAAAAAAAAAAAAAAAAAAAAAAAAAAAAAAAAAAAAAAAAAAAAAAAAAAAAAAAAAAAAAAAAAAAAAAAAAAAAAAAAAAAAAAAAAAAAAAAAAAAAAAAAAAAAAAAAAAAAAAAAAAAAAAAAAAAAAAAAAAAAAAAAAAAAAAAAAAAAAAAAAAAAAAAAAAAAAAAAAAAAAAAAAAAAAAAAAAAAAAAAAAAAAAAAAAAAAAAAAAAAAAAAAAAAAAAAAAAAAAAAAAAAAAAAAAAAAAAAAAAAAAAAAAAAAAAAAAAAAAAAAAAAAAAAAAAAAAAAAAAAAAAAAAAAAAAAAAAAAAAAAAAAAAAAAAAAAAAAAAAAAAAAAAAAAAAAAAAAAAAAAAAAAAAAAAAAAAAAAAAAAAAAAAAAAAAAAAAAAAAAAAAAAAAAAAAAAAAAAAAAAAAAAAAAAAAAAAAAAAAAAAAAAAAAAAAAAAAAAAAAAAAAAAAAAAAAAAAAAAAAAAAAAAAAAAAAAAAAAAAAAAAAAAAAAAAAAAAAAAAAAAAAAAAAAAAAAAAAAAAAAAAAAAAAAAAAAAAAAAAAAAAAAAAAAAAAAAAAAAAAAAAAAAAAAAAAAAAAAAAAAAAAAAAAAAAAAAAAAAAAAAAAAAAAAAAAAAAAAAAAAAAAAAAAAAAAAAAAAAAAAAAAAAAAAAAAAAAAAAAAAAAAAAAAAAAAAAAAAAAAAAAAAAAAAAAAAAAAAAAAAAAAAAAAAAAAAAAAAAAAAAAAAAAAAAAAAAAAAAAAAAAAAAAAAAAAAAAAAAAAAAAAAAAAAAAAAAAAAAAAAAAAAAAAAAAAAAAAAAAAAAAAAAAAAAAAAAAAAAAAAAAAAAAAAAAAAAAAAAAAAAAAAAAAAAAAAAAAAAAAAAAAAAAAAAAAAAAAAAAAAAAAAAAAAAAAAAAAAAAAAAAAAAAAAAAAAAAAAAAAAAAAAAAAAAAAAAAAAAAAAAAAAAAAAAAAAAAAAAAAAAAPZYQJjdc59DzMCC0pvvvq0as3nHWj1qp2+E78frkGJoIBrdN5W6Z6YOa0NvLRkCF8LEFrZYfNAYiveCKZUl9gtz7XI=</c2pa:manifest></metadata>
<g transform="translate(250,320) scale(0.7)">
<g transform="translate(0,-22)">
<g transform="translate(-60,-110) rotate(4) scale(1,1)"><path d="M -26,0 C -44,-70 -44,-150 -30,-205 Q -26,-224 -4,-224 L 22,-224 Q 27,-224 27,-218 L 27,0 Z" fill="#F6E7D2" stroke="#2B2B2B" stroke-width="7" stroke-linejoin="round"/><rect x="7" y="-210" width="20" height="184" rx="7" fill="#FF6B4A"/><line x1="11" y1="-168" x2="23" y2="-168" stroke="#2B2B2B" stroke-width="3" stroke-linecap="round" opacity="0.55"/><line x1="11" y1="-120" x2="23" y2="-120" stroke="#2B2B2B" stroke-width="3" stroke-linecap="round" opacity="0.55"/><line x1="11" y1="-72" x2="23" y2="-72" stroke="#2B2B2B" stroke-width="3" stroke-linecap="round" opacity="0.55"/></g>
<g transform="translate(60,-110) rotate(-4) scale(-1,1)"><path d="M -26,0 C -44,-70 -44,-150 -30,-205 Q -26,-224 -4,-224 L 22,-224 Q 27,-224 27,-218 L 27,0 Z" fill="#F6E7D2" stroke="#2B2B2B" stroke-width="7" stroke-linejoin="round"/><rect x="7" y="-210" width="20" height="184" rx="7" fill="#FF6B4A"/><line x1="11" y1="-168" x2="23" y2="-168" stroke="#2B2B2B" stroke-width="3" stroke-linecap="round" opacity="0.55"/><line x1="11" y1="-120" x2="23" y2="-120" stroke="#2B2B2B" stroke-width="3" stroke-linecap="round" opacity="0.55"/><line x1="11" y1="-72" x2="23" y2="-72" stroke="#2B2B2B" stroke-width="3" stroke-linecap="round" opacity="0.55"/></g>
<g transform="translate(0,-336)"><path d="M0,0 C -6,-16 -4,-30 0,-40 C 4,-30 6,-16 0,0 Z" fill="#6BBF59" stroke="#2B2B2B" stroke-width="5" stroke-linejoin="round" transform="translate(-14,2) rotate(-30)"/><path d="M0,0 C -6,-16 -4,-30 0,-40 C 4,-30 6,-16 0,0 Z" fill="#6BBF59" stroke="#2B2B2B" stroke-width="5" stroke-linejoin="round" transform="translate(0,2) rotate(0)"/><path d="M0,0 C -6,-16 -4,-30 0,-40 C 4,-30 6,-16 0,0 Z" fill="#6BBF59" stroke="#2B2B2B" stroke-width="5" stroke-linejoin="round" transform="translate(14,2) rotate(30)"/><path d="M -28,0 L 28,0 C 30,42 14,84 0,116 C -14,84 -30,42 -28,0 Z" fill="#FF6B4A" stroke="#2B2B2B" stroke-width="7" stroke-linejoin="round"/><line x1="-12" y1="30" x2="12" y2="34" stroke="#2B2B2B" stroke-width="4" stroke-linecap="round" opacity="0.5"/><line x1="-9" y1="55" x2="9" y2="59" stroke="#2B2B2B" stroke-width="4" stroke-linecap="round" opacity="0.5"/><line x1="-6" y1="78" x2="6" y2="82" stroke="#2B2B2B" stroke-width="4" stroke-linecap="round" opacity="0.5"/></g>
<ellipse cx="-46" cy="196" rx="36" ry="17" fill="#F6E7D2" stroke="#2B2B2B" stroke-width="7"/>
<ellipse cx="46" cy="196" rx="36" ry="17" fill="#F6E7D2" stroke="#2B2B2B" stroke-width="7"/>
<path d="M -88,80 C -102,150 -70,205 0,205 C 70,205 102,150 88,80 Z" fill="#F6E7D2" stroke="#2B2B2B" stroke-width="7" stroke-linejoin="round"/>
<ellipse cx="0" cy="145" rx="52" ry="42" fill="#FFF6EA"/>
<circle cx="0" cy="148" r="17" fill="#FF6B4A" stroke="#2B2B2B" stroke-width="6"/>
<circle cx="-5" cy="142" r="4" fill="#FFFFFF" opacity="0.8"/>
<path d="M -128,-50 C -128,-142 -62,-150 0,-150 C 62,-150 128,-142 128,-50 C 128,24 92,84 0,84 C -92,84 -128,24 -128,-50 Z" fill="#F6E7D2" stroke="#2B2B2B" stroke-width="7" stroke-linejoin="round"/>
<circle cx="-92" cy="8" r="15" fill="#FFB3A0"/>
<circle cx="92" cy="8" r="15" fill="#FFB3A0"/>
<path d="M -66,-36 Q -46,-64 -26,-36" fill="none" stroke="#2B2B2B" stroke-width="7" stroke-linecap="round"/>
<path d="M 26,-36 Q 46,-64 66,-36" fill="none" stroke="#2B2B2B" stroke-width="7" stroke-linecap="round"/>
<path d="M -66,-92 Q -46,-104 -26,-94" fill="none" stroke="#2B2B2B" stroke-width="6" stroke-linecap="round"/>
<path d="M 26,-94 Q 46,-104 66,-92" fill="none" stroke="#2B2B2B" stroke-width="6" stroke-linecap="round"/>
<path d="M -12,-4 L 12,-4 L 0,10 Z" fill="#FF6B4A" stroke="#2B2B2B" stroke-width="4" stroke-linejoin="round"/>
<path d="M -34,16 Q 0,58 34,16 Z" fill="#2B2B2B"/>
<path d="M -30,17 Q 0,50 30,17 Z" fill="#C0392B" opacity="0.0"/>
<rect x="-13" y="17" width="26" height="16" rx="4" fill="#FFFFFF" stroke="#2B2B2B" stroke-width="3"/>
<line x1="0" y1="18" x2="0" y2="32" stroke="#2B2B2B" stroke-width="3"/>
<path d="M -80,108 C -122,82 -142,30 -142,-22" fill="none" stroke="#2B2B2B" stroke-width="34" stroke-linecap="round"/>
<path d="M -80,108 C -122,82 -142,30 -142,-22" fill="none" stroke="#F6E7D2" stroke-width="20" stroke-linecap="round"/>
<circle cx="-142" cy="-30" r="19" fill="#F6E7D2" stroke="#2B2B2B" stroke-width="7"/>
<path d="M 80,108 C 122,82 142,30 142,-22" fill="none" stroke="#2B2B2B" stroke-width="34" stroke-linecap="round"/>
<path d="M 80,108 C 122,82 142,30 142,-22" fill="none" stroke="#F6E7D2" stroke-width="20" stroke-linecap="round"/>
<circle cx="142" cy="-30" r="19" fill="#F6E7D2" stroke="#2B2B2B" stroke-width="7"/>
</g>
<line x1="-60" y1="222" x2="-60" y2="240" stroke="#2B2B2B" stroke-width="5" stroke-linecap="round" opacity="0.5"/>
<line x1="0" y1="222" x2="0" y2="240" stroke="#2B2B2B" stroke-width="5" stroke-linecap="round" opacity="0.5"/>
<line x1="60" y1="222" x2="60" y2="240" stroke="#2B2B2B" stroke-width="5" stroke-linecap="round" opacity="0.5"/>
</g>
</svg>
